<?xml version="1.0" standalone="no"?>
<!DOCTYPE svg PUBLIC "-//W3C//DTD SVG 20010904//EN"
 "http://www.w3.org/TR/2001/REC-SVG-20010904/DTD/svg10.dtd">
<svg version="1.0" xmlns="http://www.w3.org/2000/svg"
 width="68.000000pt" height="72.000000pt" viewBox="0 0 68.000000 72.000000"
 preserveAspectRatio="xMidYMid meet">
<metadata>
Created by potrace 1.16, written by Peter Selinger 2001-2019
</metadata>
<g transform="translate(0.000000,72.000000) scale(0.100000,-0.100000)"
fill="#000000" stroke="none">
<path d="M130 325 c0 -211 2 -245 15 -245 13 0 15 28 15 195 0 107 3 195 8
195 4 0 51 -88 105 -196 56 -112 103 -194 109 -192 7 3 48 92 92 199 l81 194
5 -175 c6 -197 13 -219 76 -240 43 -15 51 -8 33 27 -10 21 -14 88 -17 256 l-4
227 -47 0 -47 0 -68 -167 c-38 -93 -72 -174 -77 -182 -4 -10 -37 46 -98 167
l-91 182 -45 0 -45 0 0 -245z"/>
</g>
</svg>
